<svg width="20" height="20" viewBox="0 0 20 20" fill="none" xmlns="http://www.w3.org/2000/svg">
<path fill-rule="evenodd" clip-rule="evenodd" d="M6.84697 1C6.84697 0.447715 7.29468 0 7.84697 0H11.847C12.3992 0 12.847 0.447715 12.847 1V2.7169L14.8915 3.94365L16.7573 3.19735C17.2205 3.01206 17.7494 3.19653 17.9969 3.62968L19.5621 6.3687C19.8123 6.80657 19.6973 7.36224 19.2939 7.66483L17.847 8.75V11.25L19.2939 12.3352C19.6973 12.6378 19.8123 13.1934 19.5621 13.6313L17.9969 16.3703C17.7494 16.8035 17.2205 16.9879 16.7573 16.8027L14.8915 16.0563L12.847 17.2831V19C12.847 19.5523 12.3992 20 11.847 20H7.84697C7.29468 20 6.84697 19.5523 6.84697 19V17.2831L4.80239 16.0563L2.93662 16.8027C2.47341 16.9879 1.9445 16.8035 1.69699 16.3703L0.131835 13.6313C-0.11838 13.1934 -0.00338012 12.6378 0.400078 12.3352L1.84697 11.25V8.75L0.400078 7.66483C-0.00338057 7.36224 -0.118379 6.80657 0.131835 6.3687L1.69699 3.62968C1.9445 3.19653 2.47341 3.01206 2.93662 3.19735L4.80239 3.94365L6.84697 2.7169V1ZM11.847 1H7.84697V2.7169C7.84697 3.06817 7.66267 3.39367 7.36146 3.5744L5.31688 4.80115C5.0489 4.96193 4.72116 4.98819 4.431 4.87213L2.56523 4.12582L1.00008 6.86483L2.44697 7.95C2.69877 8.13885 2.84697 8.43524 2.84697 8.75V11.25C2.84697 11.5648 2.69877 11.8611 2.44697 12.05L1.00008 13.1352L2.56523 15.8742L4.431 15.1279C4.72116 15.0118 5.0489 15.0381 5.31688 15.1989L7.36146 16.4256C7.66267 16.6063 7.84697 16.9318 7.84697 17.2831V19H11.847V17.2831C11.847 16.9318 12.0313 16.6063 12.3325 16.4256L14.377 15.1989C14.645 15.0381 14.9728 15.0118 15.2629 15.1279L17.1287 15.8742L18.6939 13.1352L17.247 12.05C16.9952 11.8611 16.847 11.5648 16.847 11.25V8.75C16.847 8.43524 16.9952 8.13885 17.247 7.95L18.6939 6.86483L17.1287 4.12582L15.2629 4.87213C14.9728 4.98819 14.645 4.96193 14.377 4.80115L12.3325 3.5744C12.0313 3.39367 11.847 3.06817 11.847 2.7169V1Z" fill="#9E9E9E"/>
<path fill-rule="evenodd" clip-rule="evenodd" d="M9.84692 13C11.5038 13 12.8469 11.6569 12.8469 10C12.8469 8.34315 11.5038 7 9.84692 7C8.19007 7 6.84692 8.34315 6.84692 10C6.84692 11.6569 8.19007 13 9.84692 13ZM9.84692 14C12.0561 14 13.8469 12.2091 13.8469 10C13.8469 7.79086 12.0561 6 9.84692 6C7.63778 6 5.84692 7.79086 5.84692 10C5.84692 12.2091 7.63778 14 9.84692 14Z" fill="#9E9E9E"/>
<path fill-rule="evenodd" clip-rule="evenodd" d="M8.62442 4.91603L5.84326 6.77014C5.56927 6.9528 5.22292 6.98886 4.91717 6.86657L2.66138 5.96425L3.03277 5.03577L5.28856 5.93809L8.06972 4.08398L8.62442 4.91603ZM14.3443 13.2246C14.6397 13.04 15.0099 13.0224 15.3215 13.1782L17.0707 14.0528L16.6235 14.9472L14.8743 14.0726L11.1121 16.424L10.5821 15.576L14.3443 13.2246Z" fill="#9E9E9E"/>
</svg>
