<svg width="20" height="20" viewBox="0 0 20 20" fill="none" xmlns="http://www.w3.org/2000/svg">
<path d="M12 0.5H8C7.72386 0.5 7.5 0.723858 7.5 1V2.7169C7.5 2.89254 7.40785 3.05529 7.25725 3.14565L5.21267 4.3724C5.07868 4.45279 4.91481 4.46592 4.76973 4.40789L2.90396 3.66158C2.67236 3.56894 2.4079 3.66117 2.28414 3.87775L0.718991 6.61677C0.593884 6.8357 0.651384 7.11354 0.853113 7.26483L2.3 8.35C2.4259 8.44443 2.5 8.59262 2.5 8.75V11.25C2.5 11.4074 2.4259 11.5556 2.3 11.65L0.853113 12.7352C0.651384 12.8865 0.593884 13.1643 0.718991 13.3832L2.28414 16.1222C2.4079 16.3388 2.67236 16.4311 2.90396 16.3384L4.76973 15.5921C4.91481 15.5341 5.07868 15.5472 5.21267 15.6276L7.25725 16.8543C7.40785 16.9447 7.5 17.1075 7.5 17.2831V19C7.5 19.2761 7.72386 19.5 8 19.5H12C12.2761 19.5 12.5 19.2761 12.5 19V17.2831C12.5 17.1075 12.5921 16.9447 12.7428 16.8543L14.7873 15.6276C14.9213 15.5472 15.0852 15.5341 15.2303 15.5921L17.096 16.3384C17.3276 16.4311 17.5921 16.3388 17.7159 16.1222L19.281 13.3832C19.4061 13.1643 19.3486 12.8865 19.1469 12.7352L17.7 11.65C17.5741 11.5556 17.5 11.4074 17.5 11.25V8.75C17.5 8.59262 17.5741 8.44443 17.7 8.35L19.1469 7.26483C19.3486 7.11354 19.4061 6.8357 19.281 6.61677L17.7159 3.87775C17.5921 3.66117 17.3276 3.56894 17.096 3.66158L15.2303 4.40789C15.0852 4.46592 14.9213 4.45279 14.7873 4.3724L12.7428 3.14565C12.5921 3.05529 12.5 2.89254 12.5 2.7169V1C12.5 0.723858 12.2761 0.5 12 0.5Z" stroke="#FFD3D3"/>
<circle cx="10" cy="10" r="3.5" stroke="#FFD3D3"/>
<path d="M3 5.5L5.2558 6.40232C5.40867 6.46347 5.58185 6.44544 5.71884 6.35411L8.5 4.5M17 14.5L15.2508 13.6254C15.095 13.5475 14.9099 13.5563 14.7622 13.6486L11 16" stroke="#FFD3D3"/>
</svg>
