<svg width="20" height="21" viewBox="0 0 20 21" fill="none" xmlns="http://www.w3.org/2000/svg">
<path d="M12 1H8C7.72386 1 7.5 1.22386 7.5 1.5V3.2169C7.5 3.39254 7.40785 3.55529 7.25725 3.64565L5.21267 4.8724C5.07868 4.95279 4.91481 4.96592 4.76973 4.90789L2.90396 4.16158C2.67236 4.06894 2.4079 4.16117 2.28414 4.37775L0.718991 7.11677C0.593884 7.3357 0.651384 7.61354 0.853113 7.76483L2.3 8.85C2.4259 8.94443 2.5 9.09262 2.5 9.25V11.75C2.5 11.9074 2.4259 12.0556 2.3 12.15L0.853113 13.2352C0.651384 13.3865 0.593884 13.6643 0.718991 13.8832L2.28414 16.6222C2.4079 16.8388 2.67236 16.9311 2.90396 16.8384L4.76973 16.0921C4.91481 16.0341 5.07868 16.0472 5.21267 16.1276L7.25725 17.3543C7.40785 17.4447 7.5 17.6075 7.5 17.7831V19.5C7.5 19.7761 7.72386 20 8 20H12C12.2761 20 12.5 19.7761 12.5 19.5V17.7831C12.5 17.6075 12.5921 17.4447 12.7428 17.3543L14.7873 16.1276C14.9213 16.0472 15.0852 16.0341 15.2303 16.0921L17.096 16.8384C17.3276 16.9311 17.5921 16.8388 17.7159 16.6222L19.281 13.8832C19.4061 13.6643 19.3486 13.3865 19.1469 13.2352L17.7 12.15C17.5741 12.0556 17.5 11.9074 17.5 11.75V9.25C17.5 9.09262 17.5741 8.94443 17.7 8.85L19.1469 7.76483C19.3486 7.61354 19.4061 7.3357 19.281 7.11677L17.7159 4.37775C17.5921 4.16117 17.3276 4.06894 17.096 4.16158L15.2303 4.90789C15.0852 4.96592 14.9213 4.95279 14.7873 4.8724L12.7428 3.64565C12.5921 3.55529 12.5 3.39254 12.5 3.2169V1.5C12.5 1.22386 12.2761 1 12 1Z" stroke="#E88787"/>
<circle cx="10" cy="10.5" r="3.5" stroke="#E88787"/>
<path d="M3 6L5.2558 6.90232C5.40867 6.96347 5.58185 6.94544 5.71884 6.85411L8.5 5M17 15L15.2508 14.1254C15.095 14.0475 14.9099 14.0563 14.7622 14.1486L11 16.5" stroke="#E88787"/>
</svg>
