<svg width="24" height="24" viewBox="0 0 24 24" fill="none" xmlns="http://www.w3.org/2000/svg">
<path fill-rule="evenodd" clip-rule="evenodd" d="M8.75298 4.89859C7.15467 5.62939 5.84962 6.87801 5.04893 8.44249C4.92614 8.68243 4.63208 8.77738 4.39215 8.65459C4.15221 8.53179 4.05725 8.23774 4.18005 7.9978C5.08082 6.23776 6.549 4.83307 8.34711 4.01091C10.1452 3.18875 12.1681 2.99722 14.0885 3.46729C16.009 3.93736 17.7147 5.04155 18.9298 6.60125C20.1449 8.16095 20.7983 10.0849 20.7844 12.062C20.7704 14.0392 20.0899 15.9537 18.8529 17.4961C17.6159 19.0385 15.8947 20.1185 13.9678 20.5614C12.0409 21.0043 10.0209 20.7842 8.23463 19.9367C6.44831 19.0892 5.00012 17.6639 4.1243 15.8913C4.0049 15.6497 4.10401 15.357 4.34565 15.2376C4.5873 15.1182 4.87998 15.2173 4.99938 15.459C5.77789 17.0346 7.06517 18.3015 8.653 19.0548C10.2408 19.8082 12.0364 20.0038 13.7492 19.6101C15.462 19.2164 16.9919 18.2564 18.0915 16.8854C19.191 15.5144 19.7959 13.8126 19.8083 12.0552C19.8207 10.2977 19.2399 8.58751 18.1599 7.20111C17.0798 5.81471 15.5636 4.83321 13.8565 4.41537C12.1494 3.99753 10.3513 4.16778 8.75298 4.89859Z" fill="#9E9E9E"/>
<path fill-rule="evenodd" clip-rule="evenodd" d="M8.52101 8.65236L4.15229 9.10692C3.8842 9.13481 3.64426 8.9401 3.61637 8.67201L3.16181 4.30329C3.13392 4.0352 3.32863 3.79526 3.59672 3.76737C3.86481 3.73948 4.10475 3.93419 4.13264 4.20228L4.49485 7.68345L4.93882 8.04374L8.42 7.68153C8.68808 7.65364 8.92802 7.84835 8.95592 8.11644C8.98381 8.38453 8.7891 8.62447 8.52101 8.65236Z" fill="#9E9E9E"/>
</svg>
