<svg width="18" height="22" viewBox="0 0 18 22" fill="none" xmlns="http://www.w3.org/2000/svg">
<path d="M5.81534 5.11914C7.50235 4.43742 9.3636 4.31504 11.1253 4.77C12.8871 5.22496 14.4564 6.23325 15.6023 7.64657C16.7483 9.05989 17.4105 10.8037 17.4916 12.6214C17.5726 14.4391 17.0682 16.2349 16.0526 17.7446C15.0369 19.2543 13.5636 20.3983 11.8493 21.0082C10.1351 21.6181 8.27032 21.6619 6.52934 21.133C4.78835 20.6041 3.26302 19.5305 2.17769 18.0701C1.09236 16.6097 0.50431 14.8396 0.500024 13.02" stroke="#999999" stroke-linecap="round"/>
<path d="M4.63265 5.3867C4.52007 5.63885 4.63321 5.93453 4.88536 6.04711L8.9944 7.88172C9.24655 7.9943 9.54223 7.88115 9.65481 7.629C9.76739 7.37685 9.65425 7.08118 9.40209 6.9686L5.74961 5.33783L7.38038 1.68535C7.49296 1.4332 7.37981 1.13753 7.12766 1.02495C6.87551 0.912366 6.57984 1.02551 6.46726 1.27766L4.63265 5.3867ZM5.84447 4.76618L4.91051 5.12357L5.2679 6.05752L6.20186 5.70013L5.84447 4.76618Z" fill="#999999"/>
</svg>
