<svg width="20" height="20" viewBox="0 0 20 20" fill="none" xmlns="http://www.w3.org/2000/svg">
<circle cx="10" cy="10" r="9.5" stroke="#FFD3D3"/>
<circle cx="10" cy="10" r="4.5" stroke="#FFD3D3"/>
<path d="M15 17.875C12.5 15.375 7.5 15.375 5 17.875" stroke="#FFD3D3"/>
<path d="M5 2C7.5 4.5 12.5 4.5 15 2" stroke="#FFD3D3"/>
<path d="M2 14.5C4.5 12 4.5 8 2 5.5" stroke="#FFD3D3"/>
<path d="M18 5.3999C15.5 7.8999 15.5 11.8999 18 14.3999" stroke="#FFD3D3"/>
<path d="M7.5 7.5L8.029 11.9965C8.0965 12.5703 8.92834 12.5733 9 12V12L9.50439 8.2171C9.58153 7.63855 10.4185 7.63855 10.4956 8.2171L11 12V12C11.0717 12.5733 11.9035 12.5703 11.971 11.9965L12.5 7.5M6.5 9.5H13.5" stroke="#FFD3D3"/>
</svg>
