<svg width="20" height="20" viewBox="0 0 20 20" fill="none" xmlns="http://www.w3.org/2000/svg">
<path fill-rule="evenodd" clip-rule="evenodd" d="M10 19C14.9706 19 19 14.9706 19 10C19 5.02944 14.9706 1 10 1C5.02944 1 1 5.02944 1 10C1 14.9706 5.02944 19 10 19ZM10 20C15.5228 20 20 15.5228 20 10C20 4.47715 15.5228 0 10 0C4.47715 0 0 4.47715 0 10C0 15.5228 4.47715 20 10 20Z" fill="#9E9E9E"/>
<path fill-rule="evenodd" clip-rule="evenodd" d="M10 14C12.2091 14 14 12.2091 14 10C14 7.79086 12.2091 6 10 6C7.79086 6 6 7.79086 6 10C6 12.2091 7.79086 14 10 14ZM10 15C12.7614 15 15 12.7614 15 10C15 7.23858 12.7614 5 10 5C7.23858 5 5 7.23858 5 10C5 12.7614 7.23858 15 10 15Z" fill="#9E9E9E"/>
<path fill-rule="evenodd" clip-rule="evenodd" d="M9.99996 15.5C11.9742 15.5 13.9885 16.1565 15.3535 17.5214L14.6464 18.2285C13.5114 17.0935 11.7757 16.5 9.99996 16.5C8.2242 16.5 6.48853 17.0935 5.35352 18.2285L4.64641 17.5214C6.0114 16.1565 8.02572 15.5 9.99996 15.5Z" fill="#9E9E9E"/>
<path fill-rule="evenodd" clip-rule="evenodd" d="M10 4.37501C8.0258 4.37501 6.01147 3.71855 4.64648 2.35356L5.35359 1.64645C6.4886 2.78147 8.22428 3.37501 10 3.37501C11.7758 3.37501 13.5115 2.78147 14.6465 1.64645L15.3536 2.35356C13.9886 3.71855 11.9743 4.37501 10 4.37501Z" fill="#9E9E9E"/>
<path fill-rule="evenodd" clip-rule="evenodd" d="M2.35359 5.14644C5.04885 7.8417 5.04885 12.1583 2.35359 14.8535L1.64648 14.1464C3.95122 11.8417 3.95122 8.15828 1.64648 5.85355L2.35359 5.14644Z" fill="#9E9E9E"/>
<path fill-rule="evenodd" clip-rule="evenodd" d="M17.6464 14.7535C14.9511 12.0582 14.9511 7.74162 17.6464 5.04636L18.3535 5.75346C16.0488 8.0582 16.0488 11.7416 18.3535 14.0464L17.6464 14.7535Z" fill="#9E9E9E"/>
<path fill-rule="evenodd" clip-rule="evenodd" d="M9.00877 8.15101C9.16305 6.99389 10.8369 6.99389 10.9912 8.15101L11.1044 8.99999H11.8201L12.0034 7.44157L12.9966 7.55841L12.827 8.99999H13.5V9.99999H12.7093L12.4676 12.0549C12.3311 13.2146 10.651 13.2214 10.5042 12.0643L10.2289 9.99999H9.77109L9.49585 12.0643C9.34899 13.2214 7.66885 13.2146 7.53242 12.0549L7.29067 9.99999H6.5V8.99999H7.17302L7.00342 7.55841L7.99658 7.44157L8.17992 8.99999H8.89558L9.00877 8.15101ZM9.90442 8.99999H10.0956L10 8.28317L9.90442 8.99999ZM8.76224 9.99999H8.29757L8.51538 11.8514L8.76224 9.99999ZM8.51146 11.9348L8.51895 11.9358C8.51978 11.9367 8.52058 11.9376 8.52135 11.9385C8.52183 11.9391 8.5223 11.9397 8.52276 11.9403L8.50808 11.9385C8.50914 11.9372 8.51027 11.936 8.51146 11.9348ZM8.52592 11.9407C8.52581 11.9399 8.52569 11.939 8.52557 11.938L8.52542 11.9367L9 12L8.52592 11.9407ZM11.2378 9.99999L11.4846 11.8514L11.7024 9.99999H11.2378ZM11.4811 11.9358L11.4885 11.9348C11.4897 11.936 11.4909 11.9372 11.4919 11.9385L11.4772 11.9403C11.4777 11.9397 11.4782 11.9391 11.4787 11.9385C11.4794 11.9376 11.4802 11.9367 11.4811 11.9358ZM11.4746 11.9367L11 12L11.4741 11.9407C11.4742 11.9399 11.4743 11.939 11.4744 11.938L11.4746 11.9367Z" fill="#9E9E9E"/>
</svg>
