<svg width="18" height="22" viewBox="0 0 18 22" fill="none" xmlns="http://www.w3.org/2000/svg">
<circle cx="9" cy="11" r="1.5" stroke="#FFD3D3"/>
<circle cx="9" cy="11" r="5.5" stroke="#FFD3D3"/>
<circle cx="9" cy="11" r="8.5" stroke="#FFD3D3"/>
<path d="M10.75 1H7.25C6.89321 1 6.65123 1.36296 6.78846 1.69231L8.53846 5.89231C8.7094 6.30256 9.2906 6.30256 9.46154 5.89231L11.2115 1.69231C11.3488 1.36296 11.1068 1 10.75 1Z" stroke="#FFD3D3"/>
<path d="M2.5 16.5L1.14645 17.8536C1.05268 17.9473 1 18.0745 1 18.2071V20.5C1 20.7761 1.22386 21 1.5 21H16.5C16.7761 21 17 20.7761 17 20.5V18.2071C17 18.0745 16.9473 17.9473 16.8536 17.8536L15.5 16.5" stroke="#FFD3D3"/>
<path d="M6 6L8.5 10M9.5 12L12 15.5M12 6L9.5 10M8.5 12L6 15.5M3.5 11H7.5M10.5 11H14.5" stroke="#FFD3D3"/>
</svg>
