<svg width="18" height="21" viewBox="0 0 18 21" fill="none" xmlns="http://www.w3.org/2000/svg">
<path fill-rule="evenodd" clip-rule="evenodd" d="M9 11.5C9.55228 11.5 10 11.0523 10 10.5C10 9.94772 9.55228 9.5 9 9.5C8.44772 9.5 8 9.94772 8 10.5C8 11.0523 8.44772 11.5 9 11.5ZM9 12.5C10.1046 12.5 11 11.6046 11 10.5C11 9.39543 10.1046 8.5 9 8.5C7.89543 8.5 7 9.39543 7 10.5C7 11.6046 7.89543 12.5 9 12.5Z" fill="#9E9E9E"/>
<path fill-rule="evenodd" clip-rule="evenodd" d="M9 15.5C11.7614 15.5 14 13.2614 14 10.5C14 7.73858 11.7614 5.5 9 5.5C6.23858 5.5 4 7.73858 4 10.5C4 13.2614 6.23858 15.5 9 15.5ZM9 16.5C12.3137 16.5 15 13.8137 15 10.5C15 7.18629 12.3137 4.5 9 4.5C5.68629 4.5 3 7.18629 3 10.5C3 13.8137 5.68629 16.5 9 16.5Z" fill="#9E9E9E"/>
<path fill-rule="evenodd" clip-rule="evenodd" d="M9 18.5C13.4183 18.5 17 14.9183 17 10.5C17 6.08172 13.4183 2.5 9 2.5C4.58172 2.5 1 6.08172 1 10.5C1 14.9183 4.58172 18.5 9 18.5ZM9 19.5C13.9706 19.5 18 15.4706 18 10.5C18 5.52944 13.9706 1.5 9 1.5C4.02944 1.5 0 5.52944 0 10.5C0 15.4706 4.02944 19.5 9 19.5Z" fill="#9E9E9E"/>
<path fill-rule="evenodd" clip-rule="evenodd" d="M6.32699 1.38462C6.05253 0.725928 6.53648 0 7.25006 0H10.7501C11.4636 0 11.9476 0.725928 11.6731 1.38462L9.92314 5.58462C9.58126 6.40513 8.41887 6.40513 8.07699 5.58462L6.32699 1.38462ZM9.00006 5.2L10.7501 1L7.25006 1L9.00006 5.2Z" fill="#9E9E9E"/>
<path fill-rule="evenodd" clip-rule="evenodd" d="M0.792893 17L2.14645 15.6465L2.85355 16.3536L1.5 17.7071V20H16.5V17.7071L15.1464 16.3536L15.8536 15.6465L17.2071 17C17.3946 17.1875 17.5 17.4419 17.5 17.7071V20C17.5 20.5523 17.0523 21 16.5 21H1.5C0.947715 21 0.5 20.5523 0.5 20V17.7071C0.5 17.4419 0.605357 17.1875 0.792893 17Z" fill="#9E9E9E"/>
<path fill-rule="evenodd" clip-rule="evenodd" d="M8.076 9.76498L5.576 5.76498L6.424 5.23499L8.924 9.23499L8.076 9.76498ZM9.076 9.23499L11.576 5.23499L12.424 5.76498L9.924 9.76498L9.076 9.23499ZM7.5 11H3.5V9.99998H7.5V11ZM14.5 11H10.5V9.99998H14.5V11ZM5.59313 14.7094L8.09313 11.2094L8.90687 11.7906L6.40687 15.2906L5.59313 14.7094ZM11.5931 15.2906L9.09313 11.7906L9.90687 11.2094L12.4069 14.7094L11.5931 15.2906Z" fill="#9E9E9E"/>
</svg>
