<svg width="20" height="20" viewBox="0 0 20 20" fill="none" xmlns="http://www.w3.org/2000/svg">
<path fill-rule="evenodd" clip-rule="evenodd" d="M10.9999 1.04383V6.11512C11.3066 6.19432 11.604 6.30996 11.8855 6.46042C12.4656 6.77051 12.9603 7.21888 13.3258 7.76582C13.6912 8.31277 13.9162 8.9414 13.9806 9.59604C14.0451 10.2507 13.9472 10.9111 13.6954 11.5188C13.4437 12.1266 13.046 12.6628 12.5375 13.0801C12.029 13.4975 11.4254 13.7829 10.7803 13.9112C10.1351 14.0396 9.46825 14.0068 8.83877 13.8159C8.53334 13.7232 8.24129 13.5947 7.96841 13.4338L4.38246 17.0198C5.27235 17.7307 6.2916 18.2682 7.38735 18.6006C8.80368 19.0302 10.3041 19.1039 11.7557 18.8152C13.2073 18.5264 14.5654 17.8841 15.7095 16.9452C16.8536 16.0063 17.7484 14.7997 18.3148 13.4323C18.8812 12.0649 19.1016 10.5789 18.9566 9.10595C18.8115 7.63302 18.3054 6.2186 17.4831 4.98797C16.6609 3.75735 15.5478 2.74851 14.2425 2.05081C13.2326 1.51104 12.1319 1.17039 10.9999 1.04383ZM10.4997 0.000602382C10.2239 -0.0131984 9.99991 0.211963 9.99991 0.488106V6.48811C9.99991 6.76425 10.2253 6.98386 10.4976 7.02968C10.8169 7.0834 11.1266 7.18866 11.4141 7.34234C11.8492 7.57491 12.2202 7.91119 12.4943 8.32139C12.7684 8.7316 12.9371 9.20308 12.9855 9.69405C13.0338 10.185 12.9603 10.6804 12.7715 11.1362C12.5828 11.592 12.2845 11.9942 11.9031 12.3071C11.5217 12.6201 11.0691 12.8342 10.5852 12.9305C10.1013 13.0267 9.60117 13.0021 9.12906 12.8589C8.81708 12.7643 8.5237 12.6198 8.25991 12.432C8.03496 12.2718 7.7203 12.2677 7.52504 12.463L3.2824 16.7056C3.08714 16.9009 3.08632 17.2185 3.2911 17.4038C4.38378 18.3923 5.68309 19.1286 7.09707 19.5575C8.67076 20.0349 10.3379 20.1168 11.9508 19.796C13.5637 19.4751 15.0726 18.7615 16.3438 17.7182C17.6151 16.6749 18.6094 15.3343 19.2387 13.8149C19.868 12.2956 20.1129 10.6445 19.9518 9.00793C19.7906 7.37134 19.2282 5.79976 18.3146 4.4324C17.401 3.06504 16.1642 1.94411 14.7139 1.16889C13.4108 0.472359 11.9714 0.0742426 10.4997 0.000602382Z" fill="#9E9E9E"/>
<path fill-rule="evenodd" clip-rule="evenodd" d="M2.05936 14.2244L6.24079 11.355C6.1451 11.0918 6.07699 10.8185 6.03815 10.5393C5.99931 10.26 5.99022 9.97848 6.01045 9.69919L1.20459 8.08001C0.980774 9.11172 0.939666 10.1774 1.08584 11.2282C1.23202 12.279 1.56244 13.293 2.05936 14.2244ZM1.4822 15.2271C1.62687 15.4623 1.93928 15.5196 2.16696 15.3634L7.11415 11.9685C7.34183 11.8122 7.39539 11.5021 7.27908 11.2517C7.15434 10.9831 7.06968 10.6966 7.02862 10.4015C6.98756 10.1063 6.99083 9.80763 7.03751 9.51517C7.08104 9.24248 6.94488 8.95878 6.68319 8.87062L0.997235 6.95492C0.735546 6.86675 0.450647 7.00715 0.375669 7.27292C0.000853211 8.60149 -0.0953195 9.99514 0.0953819 11.366C0.286083 12.7368 0.758994 14.0513 1.4822 15.2271Z" fill="#9E9E9E"/>
<path fill-rule="evenodd" clip-rule="evenodd" d="M2.50803 5.00119L7.01571 7.32473C7.03326 7.30506 7.051 7.28557 7.06894 7.26626L4.33347 2.99598C3.62724 3.56834 3.01173 4.24446 2.50803 5.00119ZM1.35156 4.96781C1.21293 5.20664 1.31044 5.50891 1.55589 5.63543L6.88906 8.38448C7.13452 8.511 7.43299 8.41129 7.59848 8.19023C7.7135 8.03658 7.84301 7.89432 7.98521 7.76541C8.1898 7.57995 8.26112 7.27345 8.11217 7.04092L4.87576 1.98863C4.72681 1.75611 4.41673 1.68734 4.19194 1.84773C3.03405 2.67387 2.06564 3.73764 1.35156 4.96781Z" fill="#9E9E9E"/>
<path fill-rule="evenodd" clip-rule="evenodd" d="M7.36171 1.3835L7.98707 2.82681L7.76884 1.26906C7.63225 1.30401 7.49651 1.34217 7.36171 1.3835ZM8.68207 0.579971C8.64376 0.306499 8.39069 0.114591 8.11948 0.166522C7.56365 0.272948 7.01786 0.426367 6.48799 0.625123C6.22944 0.722106 6.11342 1.01776 6.2232 1.27114L8.64655 6.86421C8.73537 7.0692 8.97317 7.16049 9.18824 7.10003C9.40331 7.03958 9.55872 6.83776 9.52773 6.61651L8.68207 0.579971Z" fill="#9E9E9E"/>
</svg>
