<svg width="20" height="20" viewBox="0 0 20 20" fill="none" xmlns="http://www.w3.org/2000/svg">
<path fill-rule="evenodd" clip-rule="evenodd" d="M11 1.05579V6.12709C11.3067 6.20628 11.6041 6.32193 11.8856 6.47238C12.4657 6.78247 12.9604 7.23084 13.3259 7.77779C13.6913 8.32473 13.9163 8.95336 13.9807 9.608C14.0452 10.2626 13.9473 10.9231 13.6955 11.5308C13.4438 12.1385 13.0461 12.6748 12.5376 13.0921C12.0291 13.5094 11.4255 13.7949 10.7804 13.9232C10.1352 14.0515 9.46834 14.0188 8.83886 13.8278C8.53343 13.7352 8.24138 13.6067 7.9685 13.4458L4.38255 17.0317C5.27244 17.7426 6.29169 18.2801 7.38744 18.6125C8.80377 19.0422 10.3042 19.1159 11.7558 18.8271C13.2074 18.5384 14.5654 17.8961 15.7095 16.9572C16.8536 16.0182 17.7485 14.8116 18.3149 13.4442C18.8813 12.0768 19.1017 10.5908 18.9567 9.11791C18.8116 7.64498 18.3055 6.23056 17.4832 4.99994C16.661 3.76931 15.5479 2.76047 14.2426 2.06278C13.2327 1.523 12.1319 1.18235 11 1.05579ZM10.4998 0.0125653C10.224 -0.00123552 10 0.223926 10 0.500069V6.50007C10 6.77621 10.2254 6.99583 10.4977 7.04164C10.817 7.09536 11.1267 7.20062 11.4142 7.3543C11.8493 7.58687 12.2203 7.92315 12.4944 8.33336C12.7685 8.74357 12.9372 9.21504 12.9856 9.70602C13.0339 10.197 12.9604 10.6923 12.7716 11.1481C12.5828 11.6039 12.2845 12.0061 11.9032 12.3191C11.5218 12.6321 11.0691 12.8462 10.5853 12.9424C10.1014 13.0387 9.60126 13.0141 9.12915 12.8709C8.81717 12.7763 8.52379 12.6317 8.26 12.4439C8.03505 12.2838 7.72039 12.2797 7.52513 12.4749L3.28249 16.7176C3.08723 16.9128 3.08641 17.2305 3.29119 17.4157C4.38387 18.4043 5.68319 19.1406 7.09716 19.5695C8.67086 20.0468 10.338 20.1287 11.9509 19.8079C13.5638 19.4871 15.0727 18.7734 16.3439 17.7302C17.6152 16.6869 18.6095 15.3462 19.2388 13.8269C19.8681 12.3076 20.113 10.6565 19.9518 9.0199C19.7907 7.38331 19.2283 5.81173 18.3147 4.44437C17.4011 3.07701 16.1643 1.95607 14.714 1.18086C13.4108 0.484322 11.9714 0.0862055 10.4998 0.0125653Z" fill="#E88787"/>
<path fill-rule="evenodd" clip-rule="evenodd" d="M2.05936 14.2365L6.24079 11.367C6.1451 11.1039 6.07699 10.8305 6.03815 10.5513C5.99931 10.2721 5.99022 9.99053 6.01045 9.71124L1.20459 8.09207C0.980774 9.12377 0.939666 10.1895 1.08584 11.2402C1.23202 12.291 1.56244 13.305 2.05936 14.2365ZM1.4822 15.2392C1.62687 15.4744 1.93928 15.5317 2.16696 15.3754L7.11415 11.9805C7.34183 11.8243 7.39539 11.5142 7.27908 11.2637C7.15434 10.9951 7.06968 10.7087 7.02862 10.4135C6.98756 10.1184 6.99083 9.81969 7.03751 9.52723C7.08104 9.25454 6.94488 8.97084 6.68319 8.88267L0.997235 6.96697C0.735546 6.87881 0.450647 7.0192 0.375669 7.28497C0.000853211 8.61354 -0.0953195 10.0072 0.0953819 11.378C0.286083 12.7489 0.758994 14.0633 1.4822 15.2392Z" fill="#E88787"/>
<path fill-rule="evenodd" clip-rule="evenodd" d="M2.50795 5.01315L7.01563 7.33669C7.03318 7.31702 7.05092 7.29753 7.06886 7.27822L4.33339 3.00795C3.62716 3.5803 3.01165 4.25642 2.50795 5.01315ZM1.35149 4.97978C1.21286 5.2186 1.31036 5.52087 1.55581 5.64739L6.88899 8.39644C7.13444 8.52296 7.43291 8.42326 7.5984 8.20219C7.71342 8.04855 7.84293 7.90628 7.98514 7.77737C8.18973 7.59191 8.26105 7.28541 8.1121 7.05289L4.87568 2.0006C4.72673 1.76807 4.41666 1.6993 4.19187 1.85969C3.03397 2.68583 2.06557 3.74961 1.35149 4.97978Z" fill="#E88787"/>
<path fill-rule="evenodd" clip-rule="evenodd" d="M7.36165 1.3954L7.987 2.83871L7.76878 1.28096C7.63219 1.31591 7.49645 1.35407 7.36165 1.3954ZM8.68201 0.591873C8.6437 0.318401 8.39063 0.126493 8.11941 0.178424C7.56359 0.28485 7.0178 0.438269 6.48793 0.637025C6.22937 0.734008 6.11336 1.02966 6.22314 1.28304L8.64649 6.87611C8.7353 7.0811 8.97311 7.17239 9.18818 7.11193C9.40325 7.05148 9.55866 6.84966 9.52767 6.62841L8.68201 0.591873Z" fill="#E88787"/>
</svg>
