<svg width="350" height="350" viewBox="0 0 350 350" fill="none" xmlns="http://www.w3.org/2000/svg">
<path d="M237.453 350C237.08 350 236.708 350 236.293 349.957C234.473 349.828 232.695 349.771 230.921 349.649C228.899 349.51 226.878 349.346 224.864 349.13C223.206 348.953 221.55 348.732 219.909 348.442C217.223 347.968 214.525 347.523 211.876 346.884C207.724 345.883 203.571 344.854 199.489 343.606C195.743 342.461 192.086 341.026 188.401 339.689C183.539 337.926 178.75 335.991 174.245 333.426C173.733 333.134 173.34 333.135 172.826 333.42C171.269 334.282 169.714 335.161 168.096 335.895C164.144 337.688 160.211 339.543 156.168 341.109C151.944 342.744 147.666 344.318 143.292 345.467C138.295 346.78 133.18 347.662 128.09 348.595C125.842 349.007 123.535 349.124 121.249 349.299C119.589 349.426 117.919 349.463 116.253 349.472C115.074 349.478 113.894 349.383 112.716 349.31C111.073 349.207 109.425 349.145 107.791 348.955C105.322 348.666 102.837 348.405 100.406 347.906C97.4752 347.306 94.563 346.569 91.7002 345.702C89.5795 345.059 87.5659 344.072 85.4766 343.315C82.4244 342.21 79.6029 340.635 76.948 338.832C73.7856 336.685 70.6388 334.45 67.814 331.89C65.0509 329.386 62.5342 326.557 60.2204 323.625C58.1788 321.039 56.4616 318.174 54.7954 315.319C53.3404 312.826 51.995 310.242 50.8937 307.577C49.5902 304.422 48.4644 301.178 47.5131 297.9C46.5728 294.659 45.8643 291.344 45.2089 288.031C44.7269 285.594 44.4291 283.116 44.1693 280.643C43.9128 278.204 43.6881 275.749 43.6623 273.299C43.6199 269.286 43.7499 265.271 43.807 261.257C43.8082 261.171 43.7995 261.084 43.8083 260.999C44.0359 258.803 44.2631 256.607 44.4952 254.411C44.6632 252.821 44.779 251.223 45.0241 249.644C45.3688 247.425 45.7873 245.216 46.2188 243.011C46.7674 240.209 47.2342 237.381 47.9634 234.625C49.1132 230.278 50.4174 225.97 51.7259 221.667C52.3653 219.565 53.163 217.51 53.8858 215.433C54.0008 215.103 54.0982 214.766 54.2038 214.432C53.8791 214.432 53.5545 214.431 53.2298 214.431C53.1153 214.431 53.0007 214.431 52.8862 214.431C49.9406 214.429 46.9838 214.573 44.0806 213.91C42.0974 213.457 40.0834 213.079 38.1603 212.437C35.4696 211.538 32.8706 210.372 30.4471 208.876C27.6074 207.124 24.8778 205.204 22.44 202.917C21.0335 201.598 19.7069 200.185 18.4314 198.738C17.1556 197.29 15.8768 195.823 14.7953 194.231C12.1546 190.344 9.69331 186.345 7.89131 181.977C6.66751 179.01 5.52876 176.024 4.59324 172.944C3.20413 168.371 2.25976 163.715 1.5587 159.005C1.2131 156.683 0.932069 154.332 0.885453 151.989C0.813044 148.35 0.918921 144.705 1.04179 141.066C1.10815 139.1 1.3362 137.138 1.54766 135.18C1.73279 133.466 1.88989 131.738 2.24982 130.057C2.84892 127.258 3.60925 124.495 4.28566 121.713C5.40619 117.104 7.11073 112.699 9.13045 108.429C10.3918 105.763 11.8657 103.184 13.4177 100.672C15.5819 97.1704 17.9999 93.8274 20.9024 90.8921C22.7591 89.0143 24.6862 87.1736 26.7734 85.5648C29.1183 83.7573 31.5863 82.0621 34.1742 80.632C36.3362 79.4373 38.7259 78.6346 41.0558 77.7689C43.8267 76.7394 46.7348 76.2312 49.6658 75.9684C51.3516 75.8172 53.0706 75.8334 54.7593 75.9674C57.0259 76.1472 59.3173 76.3395 61.5267 76.8408C64.868 77.5989 68.0822 78.8003 71.0991 80.4672C74.797 82.5103 78.2808 84.8472 81.2645 87.8727C81.4081 88.0183 81.624 88.0927 81.8063 88.2003C81.8225 87.9475 81.8887 87.6857 81.845 87.4437C81.7354 86.8374 81.54 86.2459 81.4432 85.6382C81.1388 83.7266 80.8231 81.8152 80.5873 79.8944C80.2616 77.2402 79.8363 74.5824 79.7592 71.9172C79.6532 68.2516 79.787 64.5762 79.9094 60.9081C79.9711 59.0569 80.179 57.2053 80.4199 55.367C80.7025 53.2104 81.111 51.0707 81.4326 48.9189C82.0086 45.0654 83.1917 41.3631 84.4244 37.6972C85.6987 33.9073 87.3559 30.2562 89.3338 26.7607C91.5537 22.8375 94.1515 19.1819 97.1565 15.8349C99.5718 13.1447 102.317 10.7979 105.278 8.71147C108.366 6.53514 111.668 4.7202 115.219 3.47288C118.045 2.4798 120.946 1.65702 123.97 1.34958C126.537 1.0885 129.072 0.761481 131.68 0.984379C134.228 1.20215 136.738 1.51128 139.245 2.02906C142.736 2.75013 146.061 3.92634 149.277 5.40477C152.417 6.84821 155.454 8.50875 158.182 10.6557C160.849 12.7538 163.541 14.8302 166.077 17.0794C167.737 18.5523 169.182 20.2792 170.647 21.9594C172.006 23.518 173.29 25.1449 174.555 26.7818C175.332 27.7867 175.994 28.88 176.754 29.8988C176.863 30.0461 177.409 30.1068 177.461 30.0244C178.81 27.8696 179.991 25.5978 181.471 23.5395C183.302 20.9918 185.254 18.5055 187.38 16.202C189.283 14.1399 191.375 12.2058 193.601 10.5001C196.074 8.60565 198.727 6.91776 201.425 5.35243C204.414 3.61827 207.649 2.42074 211.003 1.51961C214.015 0.710438 217.051 0.108303 220.163 0.0153358C221.997 -0.03946 223.841 0.0610944 225.674 0.182234C227.097 0.27626 228.543 0.376486 229.923 0.707582C233.856 1.65142 237.682 2.89265 241.25 4.88149C244.974 6.95721 248.407 9.4276 251.431 12.4014C253.432 14.3692 255.232 16.5612 256.969 18.7732C259.793 22.369 262.136 26.2776 264.034 30.4441C265.551 33.7747 266.869 37.1755 267.946 40.6815C269.17 44.668 270.038 48.7296 270.765 52.8221C271.172 55.116 271.409 57.4443 271.63 59.766C271.819 61.7447 271.958 63.7355 271.97 65.7218C271.987 68.7044 271.875 71.6878 271.818 74.6709C271.816 74.7281 271.823 74.786 271.817 74.8426C271.588 77.0387 271.376 79.2366 271.122 81.4298C271.007 82.4282 270.809 83.417 270.651 84.4106C270.522 85.217 270.389 86.0228 270.279 86.8318C270.26 86.9742 270.348 87.1311 270.386 87.2814C270.501 87.2137 270.618 87.1495 270.731 87.078C272.07 86.23 273.344 85.2513 274.759 84.5596C277.57 83.1852 280.479 82.0516 283.523 81.2401C286.286 80.5034 289.081 79.914 291.913 79.7679C295.16 79.6003 298.44 79.5283 301.662 80.2367C303.63 80.6694 305.632 80.9912 307.56 81.5599C311.054 82.5904 314.389 84.021 317.532 85.8969C320.873 87.8908 324.06 90.1121 326.849 92.806C329.229 95.1048 331.476 97.5746 333.529 100.169C336.513 103.941 338.979 108.061 341.083 112.404C342.74 115.822 344.175 119.325 345.318 122.933C346.212 125.756 346.949 128.639 347.56 131.537C348.11 134.145 348.389 136.811 348.798 139.45C348.89 140.048 349.024 140.64 349.138 141.234C349.138 147.277 349.138 153.319 349.095 159.404C348.794 161.344 348.57 163.246 348.27 165.135C347.964 167.059 347.705 169.003 347.207 170.881C346.335 174.169 345.395 177.448 344.296 180.667C343.392 183.316 342.304 185.912 341.143 188.461C339.368 192.361 337.185 196.054 334.672 199.513C332.677 202.26 330.476 204.871 328.203 207.396C326.058 209.78 323.531 211.763 320.957 213.693C316.795 216.815 312.287 219.26 307.38 220.946C303.148 222.4 298.772 223.188 294.296 223.355C293.63 223.38 293.533 223.674 293.708 224.206C294.139 225.515 294.622 226.81 295.005 228.133C296.117 231.97 297.242 235.804 298.26 239.666C298.93 242.209 299.444 244.794 299.989 247.368C300.37 249.165 300.695 250.973 301.025 252.78C301.437 255.046 301.876 257.308 302.216 259.584C302.513 261.569 302.732 263.568 302.906 265.568C303.124 268.069 303.373 270.576 303.406 273.084C303.454 276.666 303.366 280.252 303.243 283.833C303.17 285.941 302.988 288.052 302.728 290.145C302.401 292.766 302.052 295.392 301.514 297.975C300.899 300.929 300.143 303.861 299.31 306.763C298.01 311.29 296.098 315.574 293.795 319.677C291.506 323.757 288.767 327.536 285.576 330.946C283.717 332.933 281.685 334.796 279.538 336.467C276.001 339.221 272.277 341.728 268.111 343.478C265.892 344.411 263.713 345.493 261.417 346.176C258.137 347.151 254.782 347.898 251.428 348.6C249.137 349.079 246.803 349.41 244.472 349.627C242.39 349.822 240.285 349.766 238.19 349.835C237.943 349.843 237.698 349.943 237.453 350Z" fill="#242424"/>
</svg>
