<?xml version="1.0" encoding="utf-8"?><!DOCTYPE svg PUBLIC "-//W3C//DTD SVG 1.1//EN" "http://www.w3.org/Graphics/SVG/1.1/DTD/svg11.dtd"><svg version="1.1" id="Contours" xmlns="http://www.w3.org/2000/svg" xmlns:xlink="http://www.w3.org/1999/xlink" x="0px" y="0px" width="2026.938110px" height="2026.938110px" viewBox="-0.000000 -0.000000 2026.938110 2036.970093" enable-background="new 0 0 2026.938110 2026.938110" xml:space="preserve" stroke="black" fill="none" stroke-linecap='round' stroke-linejoin='round'><path class="selected"  fill="#000000" opacity="1.000000" stroke="none" 
 	d="
M1376.938164 2036.970106 C1374.771538 2036.970106 1372.604790 2036.970106 1370.188164 2036.720106 C1359.598808 2035.970106 1349.248100 2035.636854 1338.923271 2034.926160 C1327.158257 2034.116346 1315.395439 2033.165907 1303.671074 2031.909071 C1294.024956 2030.874769 1284.385796 2029.590955 1274.834038 2027.904798 C1259.201592 2025.145643 1243.502007 2022.553480 1228.085015 2018.835950 C1203.920830 2013.008924 1179.748100 2007.023573 1155.990898 1999.758314 C1134.194512 1993.092542 1112.908623 1984.739515 1091.459526 1976.959486 C1063.167168 1966.697523 1035.295464 1955.441175 1009.072624 1940.508802 C1006.093254 1938.812269 1003.810112 1938.819593 1000.814751 1940.477308 C991.754204 1945.490980 982.707756 1950.610609 973.289726 1954.881849 C950.288933 1965.313001 927.400383 1976.111707 903.870659 1985.223402 C879.287773 1994.743177 854.386406 2003.903699 828.933098 2010.590467 C799.850579 2018.230604 770.077812 2023.361463 740.459892 2028.790662 C727.374687 2031.189100 713.950005 2031.873548 700.645378 2032.890760 C690.981560 2033.629530 681.262810 2033.847547 671.566521 2033.898573 C664.706841 2033.934705 657.838982 2033.378431 650.983086 2032.952039 C641.421868 2032.357313 631.826470 2031.996107 622.321526 2030.886243 C607.946404 2029.207655 593.489617 2027.686658 579.336724 2024.785657 C562.281853 2021.289930 545.332878 2017.000623 528.671501 2011.953626 C516.329277 2008.214979 504.610527 2002.466810 492.450981 1998.064222 C474.687462 1991.632581 458.266228 1982.466688 442.815087 1971.975843 C424.410393 1959.479871 406.096184 1946.468641 389.655968 1931.569593 C373.574761 1916.995740 358.928215 1900.533338 345.461815 1883.471448 C333.579796 1868.416761 323.586205 1851.746717 313.888634 1835.130506 C305.420769 1820.621107 297.590569 1805.579725 291.181206 1790.069837 C283.594902 1771.712049 277.043114 1752.829481 271.506493 1733.749647 C266.033837 1714.890272 261.910576 1695.595472 258.096062 1676.313490 C255.291191 1662.135145 253.558159 1647.709486 252.045738 1633.320692 C250.553154 1619.120740 249.245537 1604.835706 249.095055 1590.574842 C248.848595 1567.220106 249.604943 1543.854749 249.937279 1520.493787 C249.944390 1519.993909 249.893364 1519.489149 249.944664 1518.994520 C251.269737 1506.213148 252.592034 1493.431532 253.942467 1480.652845 C254.920464 1471.398450 255.594322 1462.094984 257.020897 1452.909071 C259.026970 1439.992078 261.462639 1427.135877 263.973931 1414.304456 C267.166313 1397.993177 269.883232 1381.538343 274.126915 1365.494886 C280.818718 1340.196302 288.409325 1315.127332 296.024773 1290.084608 C299.745842 1277.848157 304.388542 1265.892469 308.594811 1253.802991 C309.264092 1251.879407 309.831230 1249.920301 310.445580 1247.977430 C308.556175 1247.974989 306.666771 1247.972303 304.777367 1247.970228 C304.110710 1247.969495 303.444084 1247.970472 302.777428 1247.969984 C285.634545 1247.958387 268.425835 1248.793836 251.529900 1244.936903 C239.987419 1242.301893 228.266106 1240.103284 217.073876 1236.364759 C201.414284 1231.134168 186.288185 1224.346326 172.183632 1215.641737 C155.657051 1205.442518 139.771080 1194.268446 125.583077 1180.962171 C117.397698 1173.285535 109.676895 1165.062513 102.253350 1156.639051 C94.828354 1148.213758 87.385956 1139.673109 81.091904 1130.408094 C65.723313 1107.785047 51.398541 1084.510267 40.911053 1059.089368 C33.788613 1041.824964 27.161236 1024.445814 21.716564 1006.519666 C13.632075 979.902235 8.135889 952.804639 4.055792 925.392957 C2.044458 911.880140 0.408866 898.200025 0.137566 884.565137 C-0.283852 863.385816 0.332344 842.171156 1.047436 820.989698 C1.433628 809.550428 2.760899 798.129652 3.991579 786.736036 C5.069010 776.761121 5.983311 766.702650 8.078072 756.918409 C11.564757 740.632764 15.989817 724.549573 19.926495 708.358472 C26.447888 681.536695 36.368145 655.897108 48.122761 631.050367 C55.463570 615.533399 64.041817 600.520216 73.074089 585.904737 C85.669815 565.523145 99.742363 546.067457 116.634316 528.984266 C127.440422 518.055860 138.655983 507.343000 150.802956 497.979993 C164.450173 487.460584 178.813637 477.594312 193.875359 469.271406 C206.458077 462.318311 220.365700 457.646772 233.925728 452.608411 C250.051659 446.616651 266.976860 443.659376 284.035088 442.129652 C293.846245 441.249830 303.850640 441.344007 313.678856 442.123731 C326.870445 443.170362 340.205803 444.289625 353.064446 447.206953 C372.510796 451.618879 391.217095 458.611036 408.774864 468.312055 C430.296135 480.202955 450.572106 493.803632 467.936760 511.411390 C468.772759 512.259107 470.029137 512.692274 471.089775 513.318494 C471.184014 511.847120 471.569664 510.323133 471.315117 508.914808 C470.677330 505.386365 469.540306 501.943647 468.977013 498.407087 C467.205010 487.281385 465.367638 476.157453 463.995690 464.978803 C462.099816 449.531293 459.624871 434.062971 459.176171 418.552106 C458.559014 397.218580 459.337975 375.828077 460.050041 354.479688 C460.409416 343.706342 461.619011 332.930189 463.021233 322.230939 C464.666100 309.680067 467.043175 297.227033 468.915184 284.703565 C472.267571 262.276624 479.152703 240.729703 486.326805 219.394468 C493.743614 197.337659 503.388176 176.088224 514.899101 155.745054 C527.818718 132.912336 542.938042 111.637045 560.426995 92.157697 C574.483818 76.501119 590.457634 62.842847 607.690422 50.699987 C625.665703 38.033941 644.883721 27.471170 665.546684 20.211889 C681.997917 14.432243 698.882195 9.643702 716.476982 7.854412 C731.418022 6.334995 746.174309 4.431755 761.350579 5.728999 C776.177666 6.996410 790.785027 8.795535 805.375969 11.808936 C825.695976 16.005537 845.047722 22.850971 863.763848 31.455324 C882.036858 39.856004 899.711724 49.520185 915.590935 62.015127 C931.109368 74.226125 946.776665 86.310735 961.536308 99.400556 C971.202080 107.972829 979.611809 118.023328 988.136955 127.801572 C996.045891 136.873014 1003.517693 146.341123 1010.880364 155.867628 C1015.400566 161.716291 1019.251641 168.079267 1023.674980 174.008497 C1024.314629 174.865903 1027.490288 175.218732 1027.790459 174.739210 C1035.643486 162.198865 1042.519219 148.977018 1051.129448 136.998090 C1061.787285 122.170232 1073.144585 107.700643 1085.518975 94.294042 C1096.596123 82.293096 1108.768120 71.036932 1121.726860 61.109769 C1136.119560 50.084150 1151.558403 40.260759 1167.259453 31.150671 C1184.654106 21.058010 1203.486016 14.088478 1223.005303 8.843986 C1240.532768 4.134691 1258.200737 0.630313 1276.312432 0.089253 C1286.987847 -0.229654 1297.717095 0.355564 1308.387383 1.060588 C1316.669365 1.607811 1325.084404 2.191116 1333.114067 4.118065 C1356.003716 9.611119 1378.271782 16.834949 1399.037773 28.409845 C1420.710747 40.490392 1440.689873 54.867799 1458.290581 72.174947 C1469.937065 83.627287 1480.414849 96.384611 1490.523247 109.258489 C1506.955010 130.185926 1520.594536 152.933668 1531.639824 177.181837 C1540.469414 196.565641 1548.137627 216.358259 1554.405815 236.762891 C1561.533013 259.964094 1566.581475 283.602186 1570.811333 307.419904 C1573.182305 320.770521 1574.562187 334.321088 1575.849175 347.832960 C1576.945976 359.348707 1577.756157 370.935011 1577.824761 382.495252 C1577.927788 399.853834 1577.271416 417.216932 1576.939018 434.578138 C1576.932549 434.911329 1576.968071 435.247877 1576.933769 435.577619 C1575.605522 448.358656 1574.369438 461.150343 1572.894097 473.914411 C1572.222588 479.725263 1571.069390 485.480115 1570.148491 491.262586 C1569.401055 495.955671 1568.623345 500.645185 1567.985771 505.353437 C1567.873467 506.182355 1568.384697 507.095716 1568.607842 507.970106 C1569.278130 507.576582 1569.960625 507.202406 1570.616875 506.786665 C1578.406670 501.851453 1585.823296 496.155256 1594.057060 492.129652 C1610.417412 484.130750 1627.349419 477.533338 1645.063896 472.810346 C1661.144829 468.522810 1677.410576 465.092695 1693.890312 464.242231 C1712.790459 463.266828 1731.877983 462.848157 1750.631035 466.970502 C1762.087090 469.488752 1773.733574 471.361829 1784.956352 474.671522 C1805.293877 480.669233 1824.699639 488.995283 1842.991875 499.912611 C1862.434990 511.516859 1880.988213 524.445020 1897.217949 540.122999 C1911.067558 553.501722 1924.148735 567.876112 1936.095391 582.976698 C1953.459648 604.925001 1967.812798 628.903822 1980.060112 654.179945 C1989.699883 674.074659 1998.050957 694.459180 2004.704766 715.460828 C2009.908989 731.887098 2014.200005 748.667982 2017.755303 765.532056 C2020.956108 780.715284 2022.580010 796.229627 2024.957085 811.589002 C2025.495537 815.068250 2026.271538 818.510694 2026.938164 821.970106 C2026.938164 857.136793 2026.938164 892.303419 2026.688164 927.720106 C2024.938042 939.007337 2023.633354 950.075574 2021.883721 961.073072 C2020.102471 972.268934 2018.596123 983.584119 2015.699028 994.510206 C2010.623711 1013.650892 2005.151787 1032.729993 1998.759331 1051.464124 C1993.498345 1066.882459 1987.164604 1081.991956 1980.409233 1096.829725 C1970.077080 1119.523817 1957.369560 1141.017347 1942.746025 1161.150282 C1931.136894 1177.133314 1918.324394 1192.331434 1905.099785 1207.026258 C1892.614678 1220.899061 1877.905083 1232.444959 1862.929375 1243.677137 C1838.705376 1261.845960 1812.467095 1276.075941 1783.909966 1285.887586 C1759.278740 1294.350111 1733.812554 1298.932874 1707.759331 1299.908826 C1703.887871 1300.053846 1703.319634 1301.765394 1704.337700 1304.858167 C1706.847100 1312.480482 1709.658013 1320.013807 1711.889702 1327.715589 C1718.359917 1350.045179 1724.907280 1372.360242 1730.830986 1394.837415 C1734.730889 1409.635877 1737.725151 1424.679212 1740.897026 1439.661146 C1743.110649 1450.117567 1745.004326 1460.643446 1746.921318 1471.160169 C1749.324394 1484.343397 1751.876152 1497.508558 1753.856255 1510.757215 C1755.582695 1522.309339 1756.859673 1533.944349 1757.873589 1545.583021 C1759.141899 1560.141004 1760.588555 1574.731458 1760.782768 1589.323499 C1761.060112 1610.171033 1760.549614 1631.042249 1759.832573 1651.884779 C1759.410576 1664.153333 1758.351006 1676.437269 1756.833672 1688.621473 C1754.934624 1703.870985 1752.901665 1719.156507 1749.772026 1734.186170 C1746.191216 1751.383070 1741.790703 1768.444471 1736.941338 1785.333753 C1729.376763 1811.679578 1718.246636 1836.615247 1704.848076 1860.494642 C1691.524468 1884.240491 1675.585137 1906.233289 1657.014458 1926.076673 C1646.193169 1937.639661 1634.367363 1948.482801 1621.872368 1958.209730 C1601.284844 1974.236341 1579.614556 1988.825941 1555.365654 1999.014173 C1542.451592 2004.439954 1529.771294 2010.737318 1516.411553 2014.712049 C1497.319023 2020.391981 1477.791435 2024.738905 1458.274834 2028.819471 C1444.938896 2031.607435 1431.357598 2033.533704 1417.788628 2034.802015 C1405.671684 2035.934461 1393.420220 2035.607679 1381.230766 2036.009168 C1379.790947 2036.056532 1378.368706 2036.636854 1376.938164 2036.970106 z"/></svg>