<svg width="349" height="350" viewBox="0 0 349 350" fill="none" xmlns="http://www.w3.org/2000/svg">
<path d="M236.591 350C236.218 350 235.846 350 235.431 349.957C233.611 349.828 231.833 349.771 230.059 349.649C228.037 349.51 226.016 349.346 224.002 349.13C222.344 348.953 220.688 348.732 219.047 348.442C216.361 347.968 213.663 347.523 211.014 346.884C206.862 345.883 202.709 344.854 198.627 343.606C194.882 342.461 191.224 341.026 187.539 339.689C182.677 337.926 177.888 335.991 173.383 333.426C172.871 333.134 172.478 333.135 171.964 333.42C170.407 334.282 168.853 335.161 167.234 335.895C163.282 337.688 159.349 339.543 155.307 341.109C151.083 342.744 146.804 344.318 142.43 345.467C137.433 346.78 132.318 347.662 127.229 348.595C124.98 349.007 122.674 349.124 120.388 349.299C118.727 349.426 117.057 349.463 115.391 349.472C114.212 349.478 113.032 349.383 111.854 349.31C110.212 349.207 108.563 349.145 106.93 348.955C104.46 348.666 101.976 348.405 99.5439 347.906C96.6134 347.306 93.7012 346.569 90.8384 345.702C88.7177 345.059 86.7041 344.072 84.6148 343.315C81.5626 342.21 78.7411 340.635 76.0862 338.832C72.9238 336.685 69.777 334.45 66.9522 331.89C64.189 329.386 61.6724 326.557 59.3586 323.625C57.317 321.039 55.5998 318.174 53.9335 315.319C52.4786 312.826 51.1332 310.242 50.0319 307.577C48.7284 304.422 47.6026 301.178 46.6513 297.9C45.711 294.659 45.0025 291.344 44.3471 288.031C43.8651 285.594 43.5673 283.116 43.3075 280.643C43.051 278.204 42.8263 275.749 42.8005 273.299C42.7581 269.286 42.8881 265.271 42.9452 261.257C42.9464 261.171 42.9376 261.084 42.9464 260.999C43.1741 258.803 43.4013 256.607 43.6334 254.411C43.8014 252.821 43.9172 251.223 44.1623 249.644C44.507 247.425 44.9255 245.216 45.357 243.011C45.9055 240.209 46.3724 237.381 47.1015 234.625C48.2513 230.278 49.5556 225.97 50.8641 221.667C51.5035 219.565 52.3012 217.51 53.0239 215.433C53.1389 215.103 53.2364 214.766 53.3419 214.432C53.0173 214.432 52.6927 214.431 52.368 214.431C52.2535 214.431 52.1389 214.431 52.0244 214.431C49.0788 214.429 46.122 214.573 43.2188 213.91C41.2356 213.457 39.2216 213.079 37.2985 212.437C34.6078 211.538 32.0088 210.372 29.5853 208.876C26.7456 207.124 24.016 205.204 21.5782 202.917C20.1717 201.598 18.8451 200.185 17.5696 198.738C16.2938 197.29 15.015 195.823 13.9335 194.231C11.2928 190.344 8.83149 186.345 7.02949 181.977C5.80569 179.01 4.66695 176.024 3.73142 172.944C2.34232 168.371 1.39794 163.715 0.696882 159.005C0.351287 156.683 0.0702529 154.332 0.0236371 151.989C-0.0487726 148.35 0.0571046 144.705 0.179974 141.066C0.246331 139.1 0.474388 137.138 0.685848 135.18C0.870977 133.466 1.02808 131.738 1.38801 130.057C1.9871 127.258 2.74743 124.495 3.42385 121.713C4.54438 117.104 6.24891 112.699 8.26864 108.429C9.52996 105.763 11.0039 103.184 12.5559 100.672C14.7201 97.1704 17.1381 93.8274 20.0406 90.8921C21.8973 89.0143 23.8244 87.1736 25.9115 85.5648C28.2565 83.7573 30.7244 82.0621 33.3124 80.632C35.4744 79.4373 37.8641 78.6346 40.194 77.7689C42.9648 76.7394 45.873 76.2312 48.804 75.9684C50.4898 75.8172 52.2088 75.8334 53.8975 75.9674C56.1641 76.1472 58.4555 76.3395 60.6649 76.8408C64.0062 77.5989 67.2204 78.8003 70.2373 80.4672C73.9351 82.5103 77.419 84.8472 80.4027 87.8727C80.5463 88.0183 80.7622 88.0927 80.9445 88.2003C80.9606 87.9475 81.0269 87.6857 80.9832 87.4437C80.8736 86.8374 80.6782 86.2459 80.5814 85.6382C80.277 83.7266 79.9613 81.8152 79.7255 79.8944C79.3998 77.2402 78.9745 74.5824 78.8974 71.9172C78.7914 68.2516 78.9252 64.5762 79.0476 60.9081C79.1093 59.0569 79.3171 57.2053 79.5581 55.367C79.8407 53.2104 80.2491 51.0707 80.5708 48.9189C81.1468 45.0654 82.3299 41.3631 83.5625 37.6972C84.8369 33.9073 86.4941 30.2562 88.4719 26.7607C90.6918 22.8375 93.2897 19.1819 96.2947 15.8349C98.71 13.1447 101.455 10.7979 104.416 8.71147C107.504 6.53514 110.806 4.7202 114.357 3.47288C117.183 2.4798 120.085 1.65702 123.108 1.34958C125.675 1.0885 128.211 0.761481 130.818 0.984379C133.366 1.20215 135.876 1.51128 138.383 2.02906C141.874 2.75013 145.199 3.92634 148.415 5.40477C151.555 6.84821 154.592 8.50875 157.32 10.6557C159.987 12.7538 162.679 14.8302 165.215 17.0794C166.876 18.5523 168.321 20.2792 169.785 21.9594C171.144 23.518 172.428 25.1449 173.693 26.7818C174.47 27.7867 175.132 28.88 175.892 29.8988C176.002 30.0461 176.547 30.1068 176.599 30.0244C177.948 27.8696 179.13 25.5978 180.609 23.5395C182.44 20.9918 184.392 18.5055 186.518 16.202C188.421 14.1399 190.513 12.2058 192.739 10.5001C195.212 8.60565 197.865 6.91776 200.563 5.35243C203.552 3.61827 206.788 2.42074 210.141 1.51961C213.153 0.710438 216.189 0.108303 219.301 0.0153358C221.135 -0.03946 222.979 0.0610944 224.812 0.182234C226.235 0.27626 227.681 0.376486 229.061 0.707582C232.994 1.65142 236.82 2.89265 240.388 4.88149C244.112 6.95721 247.545 9.4276 250.569 12.4014C252.57 14.3692 254.371 16.5612 256.107 18.7732C258.931 22.369 261.274 26.2776 263.172 30.4441C264.689 33.7747 266.007 37.1755 267.084 40.6815C268.309 44.668 269.176 48.7296 269.903 52.8221C270.31 55.116 270.547 57.4443 270.768 59.766C270.957 61.7447 271.096 63.7355 271.108 65.7218C271.126 68.7044 271.013 71.6878 270.956 74.6709C270.955 74.7281 270.961 74.786 270.955 74.8426C270.727 77.0387 270.514 79.2366 270.261 81.4298C270.145 82.4282 269.947 83.417 269.789 84.4106C269.66 85.217 269.527 86.0228 269.417 86.8318C269.398 86.9742 269.486 87.1311 269.524 87.2814C269.639 87.2137 269.757 87.1495 269.869 87.078C271.208 86.23 272.482 85.2513 273.897 84.5596C276.708 83.1852 279.617 82.0516 282.661 81.2401C285.424 80.5034 288.219 79.914 291.051 79.7679C294.298 79.6003 297.578 79.5283 300.8 80.2367C302.769 80.6694 304.77 80.9912 306.698 81.5599C310.192 82.5904 313.527 84.021 316.67 85.8969C320.011 87.8908 323.199 90.1121 325.987 92.806C328.367 95.1048 330.615 97.5746 332.667 100.169C335.651 103.941 338.117 108.061 340.221 112.404C341.878 115.822 343.313 119.325 344.456 122.933C345.35 125.756 346.088 128.639 346.698 131.537C347.248 134.145 347.527 136.811 347.936 139.45C348.028 140.048 348.162 140.64 348.276 141.234C348.276 147.277 348.276 153.319 348.233 159.404C347.933 161.344 347.708 163.246 347.408 165.135C347.102 167.059 346.843 169.003 346.345 170.881C345.473 174.169 344.533 177.448 343.434 180.667C342.531 183.316 341.442 185.912 340.281 188.461C338.506 192.361 336.323 196.054 333.81 199.513C331.815 202.26 329.614 204.871 327.342 207.396C325.196 209.78 322.669 211.763 320.096 213.693C315.933 216.815 311.425 219.26 306.518 220.946C302.286 222.4 297.91 223.188 293.434 223.355C292.769 223.38 292.671 223.674 292.846 224.206C293.277 225.515 293.76 226.81 294.143 228.133C295.255 231.97 296.38 235.804 297.398 239.666C298.068 242.209 298.583 244.794 299.128 247.368C299.508 249.165 299.833 250.973 300.163 252.78C300.576 255.046 301.014 257.308 301.354 259.584C301.651 261.569 301.87 263.568 302.045 265.568C302.262 268.069 302.511 270.576 302.544 273.084C302.592 276.666 302.504 280.252 302.381 283.833C302.309 285.941 302.127 288.052 301.866 290.145C301.54 292.766 301.19 295.392 300.653 297.975C300.037 300.929 299.281 303.861 298.448 306.763C297.148 311.29 295.236 315.574 292.934 319.677C290.644 323.757 287.905 327.536 284.715 330.946C282.855 332.933 280.823 334.796 278.676 336.467C275.139 339.221 271.415 341.728 267.249 343.478C265.03 344.411 262.851 345.493 260.556 346.176C257.275 347.151 253.92 347.898 250.566 348.6C248.275 349.079 245.941 349.41 243.61 349.627C241.528 349.822 239.423 349.766 237.328 349.835C237.081 349.843 236.837 349.943 236.591 350Z" fill="#F4F4F4"/>
</svg>
