<svg width="21" height="18" viewBox="0 0 21 18" fill="none" xmlns="http://www.w3.org/2000/svg">
<path fill-rule="evenodd" clip-rule="evenodd" d="M17.6192 9.78426C18.5082 8.52541 19.0098 7.31994 19.0098 6.23436C19.0098 3.82675 17.9267 2.15466 16.5365 1.50611C15.1854 0.875733 13.1848 1.05277 10.9806 3.11389C10.3986 3.65805 9.48846 3.66534 8.89842 3.12651C6.61649 1.04264 4.65615 0.884138 3.37241 1.50045C2.04567 2.1374 1.0098 3.79872 1.0098 6.23436C1.0098 7.32415 1.50585 8.5316 2.38173 9.78982C3.24929 11.0361 4.4259 12.241 5.63439 13.3048C6.8384 14.3646 8.04695 15.2607 8.95692 15.893C9.35118 16.1669 9.68774 16.3902 9.94144 16.5546C10.1996 16.3898 10.5432 16.1652 10.9463 15.8891C11.8698 15.2567 13.0964 14.3602 14.3183 13.3001C15.5449 12.2359 16.7389 11.0306 17.6192 9.78426ZM9.93753 17.7345C9.93753 17.7345 20.0098 11.7571 20.0098 6.23436C20.0098 0.846035 15.1126 -2.11897 10.2976 2.38347C10.0959 2.57209 9.77667 2.5743 9.57275 2.38808C4.63499 -2.12112 0.00979614 0.844193 0.00979614 6.23436C0.00979614 11.7571 9.93753 17.7345 9.93753 17.7345Z" fill="#FD4B4B"/>
</svg>
