<svg width="20" height="18" viewBox="0 0 20 18" fill="none" xmlns="http://www.w3.org/2000/svg">
<path fill-rule="evenodd" clip-rule="evenodd" d="M17.6094 9.60188C18.4985 8.34304 19 7.13756 19 6.05198C19 3.64438 17.9169 1.97229 16.5267 1.32373C15.1756 0.69336 13.175 0.870401 10.9708 2.93152C10.3888 3.47568 9.47866 3.48296 8.88862 2.94414C6.6067 0.860264 4.64636 0.701765 3.36261 1.31808C2.03587 1.95503 1 3.61634 1 6.05198C1 7.14178 1.49605 8.34922 2.37193 9.60744C3.23949 10.8537 4.4161 12.0587 5.62459 13.1224C6.8286 14.1822 8.03715 15.0784 8.94712 15.7106C9.34139 15.9845 9.67795 16.2078 9.93164 16.3722C10.1898 16.2074 10.5334 15.9828 10.9365 15.7068C11.86 15.0743 13.0866 14.1779 14.3085 13.1177C15.5351 12.0536 16.7291 10.8483 17.6094 9.60188ZM9.92773 17.5521C9.92773 17.5521 20 11.5747 20 6.05198C20 0.663661 15.1028 -2.30134 10.2878 2.2011C10.0861 2.38971 9.76688 2.39193 9.56296 2.20571C4.6252 -2.30349 0 0.661819 0 6.05198C0 11.5747 9.92773 17.5521 9.92773 17.5521Z" fill="#C33232"/>
</svg>
