<svg width="20" height="18" viewBox="0 0 20 18" fill="none" xmlns="http://www.w3.org/2000/svg">
<path fill-rule="evenodd" clip-rule="evenodd" d="M17.6094 9.84691C18.4985 8.55594 19 7.3197 19 6.20642C19 3.73738 17.9169 2.02262 16.5267 1.35751C15.1756 0.711054 13.175 0.892613 10.9708 3.00633C10.3888 3.56437 9.47866 3.57184 8.88862 3.01927C6.6067 0.882217 4.64636 0.719673 3.36261 1.35171C2.03587 2.00492 1 3.70863 1 6.20642C1 7.32402 1.49606 8.56228 2.37193 9.85261C3.23949 11.1307 4.4161 12.3664 5.62459 13.4573C6.8286 14.5442 8.03715 15.4631 8.94712 16.1115C9.34139 16.3924 9.67795 16.6214 9.93164 16.79C10.1898 16.621 10.5334 16.3906 10.9365 16.1076C11.86 15.459 13.0866 14.5397 14.3085 13.4525C15.5351 12.3611 16.7291 11.1251 17.6094 9.84691ZM9.92773 18C9.92773 18 20 11.8701 20 6.20642C20 0.680597 15.1028 -2.36007 10.2878 2.25727C10.0861 2.4507 9.76688 2.45297 9.56296 2.262C4.6252 -2.36227 0 0.678708 0 6.20642C0 11.8701 9.92773 18 9.92773 18Z" fill="#9E9E9E"/>
</svg>
