<svg width="18" height="17" viewBox="0 0 18 17" fill="none" xmlns="http://www.w3.org/2000/svg">
<path fill-rule="evenodd" clip-rule="evenodd" d="M18 16.5H0V15.5H18V16.5Z" fill="#FFD3D3"/>
<path fill-rule="evenodd" clip-rule="evenodd" d="M1 8V13H4.4V8H1ZM0.5 7C0.223858 7 0 7.22386 0 7.5V13.5C0 13.7761 0.223858 14 0.500001 14H4.9C5.17614 14 5.4 13.7761 5.4 13.5V7.5C5.4 7.22386 5.17614 7 4.9 7H0.5Z" fill="#FFD3D3"/>
<path fill-rule="evenodd" clip-rule="evenodd" d="M7.29999 6V13H10.7V6H7.29999ZM6.79999 5C6.52385 5 6.29999 5.22386 6.29999 5.5V13.5C6.29999 13.7761 6.52385 14 6.79999 14H11.2C11.4761 14 11.7 13.7761 11.7 13.5V5.5C11.7 5.22386 11.4761 5 11.2 5H6.79999Z" fill="#FFD3D3"/>
<path fill-rule="evenodd" clip-rule="evenodd" d="M13.6 1V13H17V1H13.6ZM13.1 0C12.8239 0 12.6 0.223857 12.6 0.5V13.5C12.6 13.7761 12.8239 14 13.1 14H17.5C17.7761 14 18 13.7761 18 13.5V0.5C18 0.223858 17.7761 0 17.5 0H13.1Z" fill="#FFD3D3"/>
</svg>
