<svg width="18" height="17" viewBox="0 0 18 17" fill="none" xmlns="http://www.w3.org/2000/svg">
<path fill-rule="evenodd" clip-rule="evenodd" d="M18 16.5H0V15.5H18V16.5Z" fill="#9E9E9E"/>
<path fill-rule="evenodd" clip-rule="evenodd" d="M1 8V13H4.4V8H1ZM0.5 7C0.223858 7 0 7.22386 0 7.5V13.5C0 13.7761 0.223858 14 0.500001 14H4.9C5.17614 14 5.4 13.7761 5.4 13.5V7.5C5.4 7.22386 5.17614 7 4.9 7H0.5Z" fill="#9E9E9E"/>
<path fill-rule="evenodd" clip-rule="evenodd" d="M7.30005 6V13H10.7V6H7.30005ZM6.80005 5C6.52391 5 6.30005 5.22386 6.30005 5.5V13.5C6.30005 13.7761 6.52391 14 6.80005 14H11.2C11.4762 14 11.7 13.7761 11.7 13.5V5.5C11.7 5.22386 11.4762 5 11.2 5H6.80005Z" fill="#9E9E9E"/>
<path fill-rule="evenodd" clip-rule="evenodd" d="M13.6001 1V13H17.0001V1H13.6001ZM13.1001 0C12.824 0 12.6001 0.223857 12.6001 0.5V13.5C12.6001 13.7761 12.824 14 13.1001 14H17.5001C17.7762 14 18.0001 13.7761 18.0001 13.5V0.5C18.0001 0.223858 17.7762 0 17.5001 0H13.1001Z" fill="#9E9E9E"/>
</svg>
