<?xml version="1.0" encoding="utf-8"?><!DOCTYPE svg PUBLIC "-//W3C//DTD SVG 1.1//EN" "http://www.w3.org/Graphics/SVG/1.1/DTD/svg11.dtd"><svg version="1.1" id="Contours" xmlns="http://www.w3.org/2000/svg" xmlns:xlink="http://www.w3.org/1999/xlink" x="0px" y="0px" width="1832.632446px" height="1832.632446px" viewBox="-0.000001 -0.000004 1832.632446 1833.193481" enable-background="new 0 0 1832.632446 1832.632446" xml:space="preserve" stroke="black" fill="none" stroke-linecap='round' stroke-linejoin='round'><path class="selected"  fill="#000000" opacity="1.000000" stroke="none" 
 	d="
M944.061181 749.091803 C1012.879839 751.565746 1079.369023 775.448256 1140.781668 806.602951 C1330.205108 902.697654 1480.905080 1072.688712 1553.599568 1272.265622 C1584.321354 1356.609820 1601.573334 1447.514366 1589.676713 1536.487630 C1577.780092 1625.460894 1534.327021 1712.359131 1461.626452 1765.012703 C1351.523379 1844.755127 1196.044930 1832.084642 1073.245571 1773.759214 C1040.307395 1758.114730 1007.535158 1739.176206 971.176078 1736.403040 C934.044805 1733.570994 898.014641 1747.990476 863.562755 1762.126220 C747.810605 1809.619801 619.905432 1857.608375 500.811036 1819.258338 C395.564756 1785.367558 319.406214 1686.359119 293.678469 1578.825654 C267.950724 1471.292190 287.083223 1357.039641 326.668131 1253.800124 C394.399353 1077.153548 522.817951 924.426795 685.217722 827.381228 C763.684572 780.491638 852.710792 745.807874 944.061181 749.091802 z"/><path class="selected"  fill="#000000" opacity="1.000000" stroke="none" 
 	d="
M698.012076 590.880423 C660.652726 593.238179 623.424622 578.965184 593.757192 556.137054 C564.089761 533.308923 541.438466 502.414696 523.600273 469.504532 C470.098675 370.797984 458.618567 250.175448 492.539722 143.148543 C511.186201 84.315794 548.010313 25.503677 606.675387 6.336199 C652.893681 -8.764581 705.275062 4.334543 744.676260 32.825064 C784.077458 61.315586 811.747754 103.537032 831.167290 148.113325 C866.438857 229.076928 876.678725 320.742050 860.142483 407.493078 C851.908531 450.689374 836.764449 493.412580 809.547068 527.951429 C782.329688 562.490278 741.898830 588.110724 698.012083 590.880426 z"/><path class="selected"  fill="#000000" opacity="1.000000" stroke="none" 
 	d="
M1203.909948 19.484589 C1243.290833 22.486507 1280.057595 43.245830 1307.060297 72.068037 C1334.063000 100.890245 1351.944599 137.290618 1363.657649 175.008917 C1387.869220 252.974881 1386.514477 338.654646 1359.850078 415.816173 C1345.297559 457.928307 1322.844769 498.174607 1289.546493 527.779208 C1256.248217 557.383808 1211.214827 575.389604 1166.955601 570.258481 C1130.160654 565.992717 1096.218840 546.128032 1070.842311 519.144769 C1045.465782 492.161507 1028.127410 458.427016 1016.192600 423.361007 C988.688991 342.551857 989.203904 252.498678 1017.629798 172.009328 C1032.008622 131.294940 1053.813831 92.422078 1085.827104 63.446877 C1117.840377 34.471676 1160.856009 16.202680 1203.909941 19.484586 z"/><path class="selected"  fill="#000000" opacity="1.000000" stroke="none" 
 	d="
M41.652907 900.197180 C0.634268 820.802215 -10.692189 726.493920 10.360405 639.644179 C20.607757 597.370056 38.753895 556.183373 68.459512 524.407820 C98.165130 492.632267 140.390047 471.132689 183.872599 472.306239 C207.108884 472.933364 229.929958 479.895853 250.504565 490.712674 C302.324423 517.956264 338.774483 568.455097 360.997701 622.618179 C390.117654 693.590186 397.427162 773.339712 381.694004 848.422766 C372.968549 890.063105 356.918907 930.891039 329.727267 963.612074 C302.535627 996.333108 263.340801 1020.308145 220.925330 1023.621631 C182.573034 1026.617702 144.038608 1012.593813 113.347191 989.400887 C82.655775 966.207962 59.310303 934.374531 41.652907 900.197183 z"/><path class="selected"  fill="#000000" opacity="1.000000" stroke="none" 
 	d="
M1691.252670 495.752018 C1723.845968 503.053065 1752.635466 523.429547 1773.739803 549.318450 C1794.844140 575.207354 1808.715165 606.369527 1818.056039 638.437836 C1847.148919 738.317081 1832.166281 850.192940 1777.817876 938.897563 C1759.832824 968.251834 1737.449979 995.411951 1709.232628 1015.132912 C1681.015276 1034.853874 1646.566937 1046.740683 1612.230225 1044.265729 C1570.566972 1041.262687 1532.171736 1017.190460 1506.063584 984.583574 C1479.955431 951.976687 1465.167465 911.507355 1457.375672 870.469169 C1441.214809 785.352355 1454.290169 694.961958 1493.908881 617.913904 C1512.965844 580.853079 1538.547664 546.301081 1572.766202 522.515282 C1606.984740 498.729482 1650.587037 486.642730 1691.252667 495.752015 z"/></svg>