<svg width="20" height="19" viewBox="0 0 20 19" fill="none" xmlns="http://www.w3.org/2000/svg">
<path d="M10.0488 8.08954C10.7288 8.11443 11.3858 8.35479 11.9926 8.66833C13.8643 9.63543 15.3533 11.3462 16.0716 13.3548C16.3752 14.2036 16.5456 15.1185 16.4281 16.0139C16.3105 16.9093 15.8812 17.7839 15.1628 18.3138C14.0749 19.1163 12.5386 18.9888 11.3253 18.4018C10.9998 18.2443 10.676 18.0537 10.3167 18.0258C9.94983 17.9973 9.59381 18.1425 9.2534 18.2847C8.10966 18.7627 6.84584 19.2456 5.66908 18.8597C4.62915 18.5186 3.87663 17.5222 3.62242 16.44C3.3682 15.3578 3.55725 14.2079 3.94838 13.1689C4.61763 11.3911 5.88653 9.85411 7.49118 8.87744C8.26651 8.40555 9.14617 8.05649 10.0488 8.08954Z" fill="#9E9E9E"/>
<path d="M18.1661 4.90517C18.5888 5.00231 18.9623 5.27343 19.236 5.6179C19.5097 5.96236 19.6897 6.37699 19.8108 6.80367C20.1882 8.13262 19.9938 9.62118 19.2889 10.8014C19.0556 11.192 18.7653 11.5534 18.3993 11.8158C18.0333 12.0782 17.5865 12.2364 17.1411 12.2034C16.6007 12.1635 16.1027 11.8432 15.7641 11.4093C15.4254 10.9755 15.2336 10.437 15.1326 9.89097C14.923 8.75845 15.0926 7.55576 15.6064 6.53059C15.8536 6.03748 16.1854 5.57775 16.6293 5.26127C17.0731 4.94478 17.6386 4.78396 18.1661 4.90517Z" fill="#9E9E9E"/>
<path d="M12.996 0.188645C13.5121 0.228577 13.9939 0.504716 14.3478 0.888108C14.7017 1.2715 14.9361 1.75569 15.0896 2.25742C15.4069 3.29452 15.3891 4.43423 15.0397 5.46063C14.849 6.0208 14.5547 6.55615 14.1183 6.94995C13.6819 7.34375 13.0917 7.58326 12.5117 7.51501C12.0294 7.45827 11.5846 7.19403 11.252 6.8351C10.9194 6.47617 10.6922 6.02743 10.5358 5.56099C10.1753 4.48607 10.1821 3.28819 10.5546 2.21752C10.7431 1.67594 11.0289 1.15886 11.4484 0.773429C11.868 0.388003 12.4317 0.14499 12.996 0.188645Z" fill="#9E9E9E"/>
<path d="M7.51883 7.79858C7.03253 7.82969 6.54794 7.64132 6.16177 7.34002C5.77559 7.03873 5.48075 6.63099 5.24855 6.19663C4.55214 4.89388 4.4027 3.30187 4.84425 1.88931C5.08696 1.11282 5.56629 0.336603 6.32992 0.0836266C6.93153 -0.115677 7.61337 0.0572083 8.12624 0.433233C8.63912 0.809257 8.9993 1.36651 9.25207 1.95483C9.7112 3.02341 9.84448 4.23323 9.62924 5.37819C9.52206 5.9483 9.32493 6.51217 8.97065 6.96802C8.61637 7.42388 8.09009 7.76202 7.51883 7.79858Z" fill="#9E9E9E"/>
<path d="M0.539098 10.5598C0.00820912 9.50323 -0.138385 8.24815 0.134091 7.09233C0.266718 6.52973 0.501577 5.98161 0.886046 5.55874C1.27051 5.13586 1.81702 4.84974 2.37979 4.86536C2.68053 4.8737 2.9759 4.96636 3.24219 5.11031C3.91287 5.47288 4.38463 6.14493 4.67226 6.86574C5.04915 7.81026 5.14375 8.87158 4.94012 9.87081C4.82719 10.425 4.61947 10.9683 4.26754 11.4038C3.91561 11.8392 3.40832 12.1583 2.85935 12.2024C2.36297 12.2423 1.86424 12.0556 1.46701 11.747C1.06978 11.4383 0.767631 11.0147 0.539098 10.5598Z" fill="#9E9E9E"/>
</svg>
