<svg width="21" height="21" viewBox="0 0 21 21" fill="none" xmlns="http://www.w3.org/2000/svg">
<path d="M1 9L5 13M5 9L1 13M4.5 20H1.5C1.22386 20 1 19.7761 1 19.5V16.5C1 16.2239 1.22386 16 1.5 16H4.5C4.77614 16 5 16.2239 5 16.5V19.5C5 19.7761 4.77614 20 4.5 20ZM5 2.5V5.5C5 5.77614 4.77614 6 4.5 6H1.5C1.22386 6 1 5.77614 1 5.5V2.5C1 2.22386 1.22386 2 1.5 2H4.5C4.77614 2 5 2.22386 5 2.5Z" stroke="#999999"/>
<path d="M15 16L19 20M19 16L15 20M14 1L8 7M8 7V12.5C8 12.7761 8.22386 13 8.5 13H14M8 7C9.39819 7.0788 9.87156 7.45434 9.97597 8.47652C10.005 8.76029 10.239 8.98442 10.5242 8.99008C11.6014 9.01148 12.0479 9.34829 12.0345 10.4631C12.031 10.7534 12.2484 11.0008 12.5354 11.0444C13.3653 11.1705 13.7703 11.5979 14 13M14 13L20 7M12 16.5V19.5C12 19.7761 11.7761 20 11.5 20H8.5C8.22386 20 8 19.7761 8 19.5V16.5C8 16.2239 8.22386 16 8.5 16H11.5C11.7761 16 12 16.2239 12 16.5Z" stroke="#999999"/>
<path d="M8 11L10 13" stroke="#999999"/>
</svg>
