<svg width="19" height="19" viewBox="0 0 19 19" fill="none" xmlns="http://www.w3.org/2000/svg">
<path fill-rule="evenodd" clip-rule="evenodd" d="M0 1.77387C0 1.24533 0.428467 0.816864 0.957008 0.816864H3.82803C4.35657 0.816864 4.78504 1.24533 4.78504 1.77387V4.64489C4.78504 5.17343 4.35657 5.6019 3.82803 5.6019H0.957008C0.428467 5.6019 0 5.17343 0 4.64489V1.77387ZM3.82803 1.77387H0.957008V4.64489H3.82803V1.77387ZM1.71581 9.90843L0.140151 8.33277L0.816857 7.65607L2.39252 9.23173L3.96818 7.65607L4.64489 8.33277L3.06923 9.90843L4.64489 11.4841L3.96818 12.1608L2.39252 10.5851L0.816857 12.1608L0.140151 11.4841L1.71581 9.90843ZM0 15.172C0 14.6434 0.428467 14.215 0.957008 14.215H3.82803C4.35657 14.215 4.78504 14.6434 4.78504 15.172V18.043C4.78504 18.5715 4.35657 19 3.82803 19H0.957008C0.428467 19 0 18.5715 0 18.043V15.172ZM0.957008 15.172V18.043H3.82803V15.172H0.957008Z" fill="#9E9E9E"/>
<path fill-rule="evenodd" clip-rule="evenodd" d="M12.5812 0L13.2579 0.676706L8.18997 5.74462C8.45077 5.81634 8.68099 5.91931 8.8759 6.06669C9.31989 6.40241 9.48811 6.89257 9.54452 7.44482C9.54637 7.46287 9.55469 7.47909 9.56717 7.49085C9.57916 7.50216 9.59141 7.50629 9.60267 7.50651C10.1406 7.5172 10.6615 7.60327 11.0322 7.94608C11.4164 8.30143 11.524 8.82096 11.517 9.4004C11.5166 9.43091 11.5425 9.47066 11.5898 9.47784C12.0623 9.54965 12.4876 9.7218 12.8106 10.1334C12.9705 10.3373 13.0928 10.5848 13.1892 10.8761L18.3232 5.74205L18.9999 6.41875L13.1177 12.3009H7.65598C7.12744 12.3009 6.69897 11.8725 6.69897 11.3439V5.8822L12.5812 0ZM12.3306 11.3439C12.248 11.0392 12.1551 10.8483 12.0576 10.7241C11.9332 10.5656 11.7677 10.4729 11.446 10.424C10.9439 10.3477 10.5537 9.91387 10.56 9.38886C10.5659 8.9014 10.4663 8.72631 10.3823 8.64865C10.2848 8.55846 10.0767 8.47313 9.58366 8.46333C9.05915 8.45291 8.64377 8.04428 8.59247 7.54207C8.54896 7.11608 8.44071 6.93742 8.2987 6.83004C8.17815 6.73889 7.98414 6.66039 7.65598 6.60879V11.3439H12.3306ZM6.69897 15.172C6.69897 14.6434 7.12744 14.215 7.65598 14.215H10.527C11.0555 14.215 11.484 14.6434 11.484 15.172V18.043C11.484 18.5715 11.0555 19 10.527 19H7.65598C7.12744 19 6.69897 18.5715 6.69897 18.043V15.172ZM10.527 15.172H7.65598V18.043H10.527V15.172ZM15.1138 16.6075L13.5382 15.0318L14.2149 14.3551L15.7905 15.9308L17.3662 14.3551L18.0429 15.0318L16.4673 16.6075L18.0429 18.1831L17.3662 18.8598L15.7905 17.2842L14.2149 18.8598L13.5382 18.1831L15.1138 16.6075Z" fill="#9E9E9E"/>
<path fill-rule="evenodd" clip-rule="evenodd" d="M8.75313 12.1608L6.83911 10.2468L7.51582 9.57007L9.42983 11.4841L8.75313 12.1608Z" fill="#9E9E9E"/>
</svg>
